OpenSim_Sub22_baseline_IK_filtered.mot
version=1
nRows=21
nColumns=24
inDegrees=yes
endheader
time	pelvis_tilt	pelvis_list	pelvis_rotation	pelvis_tx	pelvis_ty	pelvis_tz	hip_flexion_r	hip_adduction_r	hip_rotation_r	knee_angle_r	ankle_angle_r	subtalar_angle_r	mtp_angle_r	hip_flexion_l	hip_adduction_l	hip_rotation_l	knee_angle_l	ankle_angle_l	subtalar_angle_l	mtp_angle_l	lumbar_extension	lumbar_bending	lumbar_rotation
15	-9.07052156	4.02910166	7.97505110	1.01319704	0.91564263	-0.51640556	33.95520844	-8.12274546	-7.11231553	-11.62617361	11.10163189	-0.00000188	0.00000001	0.43988415	4.75941152	10.97541665	-20.47286984	22.17209615	-0.00000029	0.00000001	-9.13792237	-3.18251010	-0.03855674
15.01000000	-9.08058841	3.73797571	8.21457626	1.01474625	0.91493543	-0.51507946	33.88998129	-7.81393027	-6.92995527	-12.87603913	10.80333020	-0.00000229	-0.00000000	0.37312384	4.32828863	11.21373299	-21.96239865	21.60452849	-0.00000010	0.00000003	-8.90849068	-2.88175625	-0.03363802
15.02000000	-9.08899125	3.38850359	8.42634515	1.01642336	0.91445594	-0.51375239	33.80457031	-7.44553355	-6.80666776	-14.21060445	10.50657480	-0.00000281	-0.00000002	0.41536983	3.84862982	11.40108623	-23.62730616	20.78799228	0.00000007	0.00000004	-8.66324201	-2.50873692	-0.02745277
15.03000000	-9.09556968	2.98163374	8.60891680	1.01817899	0.91420895	-0.51241116	33.69588392	-7.01237858	-6.71445014	-15.57779554	10.25716655	-0.00000337	-0.00000004	0.58884754	3.32128046	11.52492835	-25.49244336	19.70306487	0.00000023	0.00000006	-8.40691854	-2.06554924	-0.02002851
15.04000000	-9.09580803	2.51895859	8.76256604	1.01996076	0.91419611	-0.51104878	33.55490779	-6.50952681	-6.62910534	-16.93491696	10.09719637	-0.00000396	-0.00000007	0.90943144	2.74644224	11.57637056	-27.57791814	18.33979723	0.00000039	0.00000007	-8.14908512	-1.55391706	-0.01137556
15.05000000	-9.08104789	2.00323440	8.88946333	1.02171520	0.91441659	-0.50966533	33.36584167	-5.93371231	-6.53617217	-18.24329006	10.05754649	-0.00000452	-0.00000010	1.38464733	2.12440450	11.55163813	-29.89547384	16.70154047	0.00000055	0.00000009	-7.90385868	-0.97576351	-0.00149793
15.06000000	-9.04061389	1.43920852	8.99395610	1.02338914	0.91486523	-0.50826650	33.10830349	-5.28527865	-6.43347009	-19.46582979	10.15512391	-0.00000504	-0.00000013	2.01403418	1.45709067	11.45351205	-32.44574402	14.80938183	0.00000070	0.00000010	-7.68767253	-0.33472519	0.00957458
15.07000000	-8.96478910	0.83431803	9.08274541	1.02493119	0.91553019	-0.50686205	32.76145918	-4.56999319	-6.33134239	-20.56743203	10.39268895	-0.00000551	-0.00000015	2.79093490	0.74995196	11.29274530	-35.21663507	12.70638320	0.00000085	0.00000012	-7.51603008	0.36231104	0.02175169
15.08000000	-8.84770814	0.19891212	9.16437330	1.02629393	0.91639124	-0.50546443	32.30886433	-3.79983803	-6.25033331	-21.51734774	10.75983859	-0.00000591	-0.00000017	3.70491973	0.01354705	11.08825138	-38.18295283	10.45933683	0.00000099	0.00000013	-7.40010777	1.10426944	0.03485837
15.09000000	-8.68954289	-0.45390460	9.24805501	1.02743717	0.91741979	-0.50408806	31.74273069	-2.99266806	-6.21666924	-22.29239836	11.23591065	-0.00000623	-0.00000019	4.74415959	-0.73559982	10.86504886	-41.30696875	8.15643388	0.00000110	0.00000014	-7.34395949	1.87563958	0.04862429
15.10000000	-8.49701996	-1.10865244	9.34236679	1.02833147	0.91858137	-0.50274913	31.06593073	-2.17096943	-6.25654339	-22.87982375	11.79443731	-0.00000646	-0.00000021	5.89666069	-1.47530589	10.65013307	-44.53968203	5.90138415	0.00000116	0.00000015	-7.34361833	2.65689853	0.06268943
15.11000000	-8.28217468	-1.74846555	9.45420667	1.02896144	0.91983981	-0.50146461	30.29132559	-1.35954597	-6.39027659	-23.27888190	12.40684417	-0.00000661	-0.00000022	7.15038287	-2.17978558	10.46760138	-47.82308363	3.80500420	0.00000118	0.00000016	-7.38820150	3.42588309	0.07663115
15.12000000	-8.06029558	-2.35674460	9.58794968	1.02932902	0.92116182	-0.50025008	29.43931861	-0.58240512	-6.62761203	-23.50048351	13.04442803	-0.00000666	-0.00000023	8.49319832	-2.82323596	10.33412677	-51.09340558	1.97421972	0.00000115	0.00000016	-7.46187052	4.15999185	0.09000802
15.13000000	-7.84763397	-2.91834987	9.74433894	1.02945496	0.92252055	-0.49911703	28.53440729	0.13987382	-6.96458533	-23.56486490	13.68026685	-0.00000663	-0.00000024	9.91284681	-3.38318094	10.25555643	-54.28497872	0.49831546	0.00000109	0.00000016	-7.54630743	4.83791991	0.10239649
15.14000000	-7.65909329	-3.41953115	9.91897806	1.02937673	0.92389677	-0.49806999	27.60143254	0.79136538	-7.38178167	-23.49837418	14.29151232	-0.00000653	-0.00000024	11.39664604	-3.84185455	10.22593280	-57.33463354	-0.56591653	0.00000102	0.00000016	-7.62379405	5.43999389	0.11340358
15.15000000	-7.50620140	-3.84739564	10.10104713	1.02914439	0.92527836	-0.49710482	26.66204607	1.36100130	-7.84501838	-23.33003440	14.86102691	-0.00000637	-0.00000024	12.93087222	-4.18616816	10.22916211	-60.18598431	-1.20600358	0.00000095	0.00000016	-7.68020605	5.94800410	0.12267051
15.16000000	-7.39537796	-4.19001105	10.27314309	1.02881681	0.92665992	-0.49620890	25.73152621	1.84244944	-8.30965295	-23.08810150	15.37859213	-0.00000617	-0.00000023	14.49961711	-4.40800482	10.24199560	-62.79244903	-1.45698090	0.00000090	0.00000015	-7.70733551	6.34575589	0.12988773
15.17000000	-7.32659456	-4.43716584	10.41263838	1.02845763	0.92804286	-0.49536273	24.81648546	2.23376876	-8.72734519	-22.79741177	15.84147588	-0.00000596	-0.00000023	16.08357207	-4.50514328	10.23744028	-65.11882912	-1.39257954	0.00000088	0.00000015	-7.70442998	6.62026199	0.13481988
15.18000000	-7.29313825	-4.58144279	10.49446738	1.02813013	0.92943437	-0.49454316	23.91428344	2.53682327	-9.05315778	-22.47774604	16.25323943	-0.00000574	-0.00000022	17.65996314	-4.48185408	10.18872953	-67.14179099	-1.10743060	0.00000089	0.00000015	-7.67828826	6.76311555	0.13733070
15.19000000	-7.28279321	-4.61956333	10.49488849	1.02789110	0.93084431	-0.49372864	23.01443320	2.75671357	-9.25219563	-22.14296844	16.62132070	-0.00000552	-0.00000021	19.20410722	-4.34867392	10.07380515	-68.84933393	-0.69711650	0.00000092	0.00000014	-7.64159927	6.77203545	0.13740725
15.20000000	-7.28011511	-4.55367460	10.39526702	1.02778231	0.93228018	-0.49290425	22.10202982	2.90132172	-9.30443597	-21.80147882	16.95482762	-0.00000531	-0.00000020	20.69207448	-4.12157429	9.87896827	-70.23907229	-0.24178255	0.00000096	0.00000014	-7.61023500	6.65213898	0.13517679
